<?xml version="1.0" standalone="no"?><!DOCTYPE svg PUBLIC "-//W3C//DTD SVG 1.1//EN" "http://www.w3.org/Graphics/SVG/1.1/DTD/svg11.dtd"><svg t="1642688205832" class="icon" viewBox="0 0 1024 1024" version="1.1" xmlns="http://www.w3.org/2000/svg" p-id="7415" xmlns:xlink="http://www.w3.org/1999/xlink" width="200" height="200"><defs><style type="text/css"></style></defs><path d="M279.27997417 174.60762113l20.92155681-21.30899226 37.19387683 33.3195155-17.82206562 15.88488532h-25.95822751l25.18335434 5.42410693C305.62563791 229.62356509 289.86989824 248.22050387 271.53125 263.717953h19.75924742L311.82461725 243.57126937l30.22002583 27.12053538V134.70169008l54.62850775 8.13616039v14.7225767c27.3788267-7.23214307 49.59183703-18.33864824 66.63903021-33.3195155l43.39285693 34.09438792c-28.15369912 15.49744912-64.83099483 25.18335434-110.03188714 29.0577172v53.85363533h61.21492329l18.59693879-15.11001292 31.7697699 27.5079716-14.72257594 16.27232153h-20.92155604v213.47735951l-52.3038905 5.03667149V269.91693233h-23.6336095v11.62308704c0 47.52551032-6.84470687 86.78571462-20.53411985 117.78061209-12.13966813 30.73660692-30.22002583 59.0194517-54.24107152 84.8485328l-24.02104649-16.65975774c6.71556121-12.65625 12.52710434-25.57079054 17.43463016-38.74362242l-32.1572061 21.30899302c-5.94068879-21.95471902-13.17283187-42.35969396-21.69642922-61.21492408v61.60236029c0 23.2461733-11.62308703 34.86926032-34.86925957 34.86925956h-24.7959189c0-18.59693879-10.07334219-27.89540781-30.22002505-27.89540781l1.16230862-18.20950258h22.08386467c6.97385175 0 10.46077841-5.94068879 10.4607784-17.82206637V389.63472547c-14.46428539 22.21301032-31.12404313 43.00542071-49.97927324 62.37723269l-21.30899224-17.43463016c11.62308703-19.37181121 22.60044653-45.07174742 32.93207852-77.09980863L205.27965598 371.03778667V348.953922H150.65114825L143.2898595 321.0585142H205.27965598v-29.4451534H143.67729571L136.31600775 263.717953h48.42952763c-9.81505087-18.59693879-20.01753797-34.22353281-30.60746125-46.87978358l15.49744911-14.33513973H146.77678539L139.41549741 174.60762113h72.83801033c-6.45727066-12.91454054-13.04368621-24.40848193-19.75924741-34.48182413l29.05771642-20.92155604c14.7225767 9.81505087 30.34917071 22.98788274 46.87978358 39.51849484L246.34789566 174.60762113h32.93207851zM261.45790781 368.32573321l15.1100129-9.29846901c19.11352066 16.27232153 34.61096902 32.02806121 46.49234737 47.26721901 12.39795946-39.51849483 18.72608446-81.23246203 18.984375-125.14190005l-11.62308704 10.46077764H261.45790781v29.4451534h13.94770428l20.92155604-21.30899224 37.19387758 33.31951471L315.69897934 348.953922H261.45790781v19.37181121zM201.79272934 263.717953h29.44515341c11.62308703-17.56377583 21.95471902-37.96875 30.99489823-61.21492331H181.64604571c18.33864824 12.39795946 33.19036983 24.53762758 44.55516632 36.4190044l-24.40848269 24.79591891z m628.03411983-99.18367331l23.24617408-22.08386544 39.51849483 34.86926033-18.59693879 17.43463017h-98.02136467v68.57621204h42.61798451l22.47130087-20.53411983 38.35618621 33.31951471-17.82206638 17.43463017h-85.62340521v85.23596979h57.34056121l22.47130087-20.53411984L892.97895429 391.57190652l-17.43463017 17.43463015h-99.5711095v72.06313792l-63.92697753 6.1989801V409.00653667h-172.40911983l-7.74872418-30.22002505h49.97927246V263.33051679c-11.10650517 9.04017846-22.34215598 16.53061208-33.70695093 22.47130088l-19.3718112-30.99489825c31.76977066-37.45216813 53.72448968-80.07015341 65.8641578-127.85395352l73.22544654 15.88488457a424.24266554 424.24266554 0 0 1-10.84821462 21.69642922h172.79655604z m-190.2311862 30.22002506c-11.36479571 18.08035692-23.11702841 33.7069517-35.25669578 46.87978358l41.8431121 5.42410691v16.27232155h65.8641578V194.75430476h-72.45057412z m72.45057412 184.03220687v-85.23596978h-65.8641578v85.23596978h65.8641578z m-557.90816296 226.00446385l29.05771641 5.42410769v42.61798451c0 34.09438792-0.64572676 60.95663275-1.93718104 80.5867345l-40.29336724-19.75924742c3.35778098-13.94770429 6.06983446-31.12404313 8.13616115-51.52901808 2.32461725-18.08035692 4.00350774-37.19387759 5.03667072-57.3405612z m37.19387757-59.66517847l56.5656888 6.58641633v58.11543363l15.88488533-8.13616116c18.85522934 30.99489824 33.19036983 57.59885175 43.0054207 79.81186209l-46.10491115 22.85873785a580.67004158 580.67004158 0 0 0-12.78539488-62.3772327v258.41996204l-56.5656888 6.97385176v-362.25286984z m220.06377506 182.09502582v-91.04751291h-21.69642846v44.16772934c0 16.78890341-1.03316297 32.41549741-3.09948967 46.87978357h24.79591813z m-21.69642846-118.9429207h17.43463016l27.50797237-26.73309995 50.36670867 39.13105863-15.49744912 15.88488533v84.84853356l10.07334221-12.78539565 25.95822675 31.38233444-12.39795868 15.49744836H411.00829054c9.55676032 16.78890341 20.79241039 32.15720687 33.70695172 46.10491116 14.98086725 16.78890341 34.86926032 31.25318879 59.66517845 43.39285691L470.67346902 906.21635821c-23.76275517-14.20599483-44.42602066-37.58131379-61.98979572-70.12595609-12.65625-23.2461733-22.08386468-49.33354571-28.28284401-78.26211802-4.90752583 20.14668363-12.01052325 38.09789566-21.30899226 53.85363532-19.88839308 37.45216813-49.72098192 68.18877583-89.49776807 92.20982155L253.70918363 881.03300387c25.82908187-27.12053539 45.20089308-56.56568879 58.11543363-88.33545945 5.16581637-11.10650517 9.16932412-23.50446461 12.01052324-37.19387758h-56.17825258l-7.74872495-28.28284402h68.96364824c1.54974483-14.20599483 2.32461725-29.5742983 2.32461725-46.10491115v-44.94260175H288.57844396l-6.58641556-27.8954078H331.19642847v-62.76466891l58.50286983 8.13616116v54.62850775z m299.10076549 19.37181121l63.92697675 8.9110328v69.73852066h75.5500638l20.14668363-17.04719397 34.48182412 29.83258885-16.27232155 17.43463017h-113.90625v116.23086725c0 31.51147934-14.98086725 47.26721902-44.94260175 47.26721978H672.14030604c0-29.9617345-14.7225767-45.07174742-44.16772934-45.33003797l1.16230862-26.73309993c18.85522934 5.42410692 33.3195155 8.13616039 43.39285693 8.13616115 10.84821462 0 16.27232153-4.2617983 16.27232154-12.78539566v-86.78571462H548.16071461c9.55676032-59.66517847 18.33864824-110.67761468 26.34566297-153.03730863l46.8797828 7.74872495c81.36160692-5.94068879 147.74234659-20.01753797 199.14221979-42.23054907l43.00542071 45.71747495c-55.2742345 16.53061208-133.40720687 25.05420946-234.39891556 25.57079054l-15.11001291 86.01084221h74.77519138v-78.64955346z m105.3826534 123.59215521c34.61096902 22.98788274 66.50988532 50.625 95.69674742 82.91135177l-49.20440082 47.65465598c-18.33864824-35.12755088-43.65114824-68.05963017-75.9375-98.79623709l29.4451534-31.76977066z m-193.33067665 0l62.37723271 22.47130088c-28.41198968 40.80994913-62.50637759 78.64955346-102.28316375 113.51881379l-30.99489747-25.18335434c25.05420946-27.63711726 48.68781896-64.57270429 70.90082851-110.80676033z" fill="#d81e06" p-id="7416"></path></svg>