<?xml version="1.0" standalone="no"?><!DOCTYPE svg PUBLIC "-//W3C//DTD SVG 1.1//EN" "http://www.w3.org/Graphics/SVG/1.1/DTD/svg11.dtd"><svg t="1642678438421" class="icon" viewBox="0 0 1024 1024" version="1.1" xmlns="http://www.w3.org/2000/svg" p-id="11423" xmlns:xlink="http://www.w3.org/1999/xlink" width="200" height="200"><defs><style type="text/css"></style></defs><path d="M528.1 118.8L878.8 316v392.3L528.1 905.7 177.3 708.4V316l350.8-197.2m0-56.6l-400 225v450l400 225 400-225v-450l-400-225z" p-id="11424"></path><path d="M568.8 423.3h-59.9v155h33.6V456.9h114.6v121.4h33.5V417.8h-33.5v5.5h-49.2l17.3-28.5h79.2v-33.6H494.8v33.6h91.4zM494.1 608.5l-10.6-31.4-44.4 14V402.6h48v-33.5H358v33.5h47.6v199.5l-53.4 17.4-1.2 0.4 10.2 31.4 131.7-42.4z" p-id="11425"></path><path d="M615.6 527.9v-58.2H582v54.5c-2.6 10-6.8 19.8-12.6 29-5.8 9.3-12.5 18.1-19.9 26.1-7.4 8-15.1 15.4-22.9 22.1-7.7 6.6-15 12.4-21.6 17.2-6.5 4.8-14.1 9.9-22.7 15.1l-1 0.6 16.5 28.8 1.1-0.5c0.7-0.4 5.1-3 8.7-5.1 5.3-3.2 11.8-7.7 19.2-13.2 7.6-5.8 16-12.6 24.8-20.3 9-7.8 17.8-16.7 26.1-26.5 8.3-9.7 15.9-20.3 22.7-31.6 6.8-11.3 11.8-23.4 14.7-36.1l0.5-1.9zM624.1 560.3l-23.3 24.3 80.6 77 1 0.9 22-23.3 0.9-0.9z" p-id="11426"></path></svg>